<svg width="22" height="22" viewBox="0 0 22 22" fill="none" xmlns="http://www.w3.org/2000/svg">
<path d="M17.875 20.1665C18.6344 20.1665 19.25 19.5509 19.25 18.7915C19.25 18.0321 18.6344 17.4165 17.875 17.4165C17.1156 17.4165 16.5 18.0321 16.5 18.7915C16.5 19.5509 17.1156 20.1665 17.875 20.1665Z" stroke="white" stroke-width="1.5" stroke-linecap="round" stroke-linejoin="round"/>
<path d="M8.70825 20.1665C9.46762 20.1665 10.0833 19.5509 10.0833 18.7915C10.0833 18.0321 9.46762 17.4165 8.70825 17.4165C7.94886 17.4165 7.33325 18.0321 7.33325 18.7915C7.33325 19.5509 7.94886 20.1665 8.70825 20.1665Z" stroke="white" stroke-width="1.5" stroke-linecap="round" stroke-linejoin="round"/>
<path d="M4.58325 3.66683H20.1666L18.3333 13.7502H6.41659L4.58325 3.66683ZM4.58325 3.66683C4.43047 3.05572 3.66659 1.8335 1.83325 1.8335" stroke="white" stroke-width="1.5" stroke-linecap="round" stroke-linejoin="round"/>
<path d="M18.3334 13.75H6.41675H4.79495C3.15934 13.75 2.29175 14.4661 2.29175 15.5833C2.29175 16.7006 3.15934 17.4167 4.79495 17.4167H17.8751" stroke="white" stroke-width="1.5" stroke-linecap="round" stroke-linejoin="round"/>
</svg>
