<svg width="1150" height="110" viewBox="0 0 1150 110" fill="none" xmlns="http://www.w3.org/2000/svg">
<path d="M61.65 109.8C49.65 109.8 39 107.65 29.7 103.35C20.4 99.05 13.1 93.1 7.8 85.5C2.6 77.9 2.12342e-07 69.2 2.12342e-07 59.4V50.4C2.12342e-07 40.5 2.6 31.8 7.8 24.3C13.1 16.7 20.4 10.75 29.7 6.45002C39 2.15002 49.65 2.13385e-05 61.65 2.13385e-05C72.25 2.13385e-05 81.85 1.70002 90.45 5.10002C99.05 8.50002 106.1 13.25 111.6 19.35C117.2 25.35 120.55 32.4 121.65 40.5L78.6 49.2C78.2 45.1 76.4 41.65 73.2 38.85C70.1 35.95 66.25 34.5 61.65 34.5C56.75 34.5 52.6 36.05 49.2 39.15C45.8 42.25 44.1 46 44.1 50.4V59.4C44.1 63.8 45.8 67.55 49.2 70.65C52.6 73.75 56.75 75.3 61.65 75.3C66.25 75.3 70.1 73.9 73.2 71.1C76.4 68.2 78.2 64.7 78.6 60.6L121.65 69.3C120.55 77.3 117.2 84.35 111.6 90.45C106.1 96.55 99.05 101.3 90.45 104.7C81.85 108.1 72.25 109.8 61.65 109.8ZM130.037 59.4V50.4C130.037 40.5 132.637 31.8 137.837 24.3C143.137 16.7 150.437 10.75 159.737 6.45002C169.037 2.15002 179.687 2.13385e-05 191.687 2.13385e-05C203.787 2.13385e-05 214.437 2.15002 223.637 6.45002C232.937 10.75 240.187 16.7 245.387 24.3C250.687 31.8 253.337 40.5 253.337 50.4V59.4C253.337 69.2 250.687 77.9 245.387 85.5C240.187 93.1 232.937 99.05 223.637 103.35C214.437 107.65 203.787 109.8 191.687 109.8C179.687 109.8 169.037 107.65 159.737 103.35C150.437 99.05 143.137 93.1 137.837 85.5C132.637 77.9 130.037 69.2 130.037 59.4ZM191.687 34.5C186.787 34.5 182.637 36.05 179.237 39.15C175.837 42.25 174.137 46 174.137 50.4V59.4C174.137 63.8 175.837 67.55 179.237 70.65C182.637 73.75 186.787 75.3 191.687 75.3C196.687 75.3 200.837 73.75 204.137 70.65C207.537 67.55 209.237 63.8 209.237 59.4V50.4C209.237 46 207.537 42.25 204.137 39.15C200.837 36.05 196.687 34.5 191.687 34.5ZM266.883 107.4V2.40002H324.783L342.333 51.6L359.883 2.40002H417.783V107.4H377.283V52.65L357.783 107.4H326.883L307.383 52.65V107.4H266.883ZM434.273 107.4V2.40002H492.173L509.723 51.6L527.273 2.40002H585.173V107.4H544.673V52.65L525.173 107.4H494.273L474.773 52.65V107.4H434.273ZM656.714 109.8C638.814 109.8 625.014 105.9 615.314 98.1C605.614 90.2 600.764 79 600.764 64.5V2.40002H642.764V61.35C642.764 72.25 647.414 77.7 656.714 77.7C666.014 77.7 670.664 72.25 670.664 61.35V2.40002H712.664V64.5C712.664 79 707.814 90.2 698.114 98.1C688.414 105.9 674.614 109.8 656.714 109.8ZM728.332 107.4V2.40002H768.232L806.332 48.3V2.40002H846.832V107.4H806.932L768.832 61.5V107.4H728.332ZM863.35 107.4V2.40002H905.35V107.4H863.35ZM948.302 107.4V37.2H917.402V2.40002H1021.05V37.2H990.302V107.4H948.302ZM1067.06 107.4V65.85L1026.56 2.40002H1074.11L1087.76 27.6L1102.31 2.40002H1149.56L1109.06 65.85V107.4H1067.06Z" fill="#94B95F" fill-opacity="0.15"/>
</svg>
