<svg width="1154" height="358" viewBox="0 0 1154 358" fill="none" xmlns="http://www.w3.org/2000/svg">
<path d="M1.41561e-06 358V7.99998H314V124H140V160H260V256H140V358H1.41561e-06ZM292.746 358L422.746 7.99998H602.746L732.746 358H589.746L573.246 303.5H453.246L435.746 358H292.746ZM491.246 183L480.246 217.5H547.746L537.246 183L519.246 107.5H510.246L491.246 183ZM936.438 358C896.438 358 860.938 351.167 829.938 337.5C798.938 323.833 774.604 305 756.938 281C739.604 257 730.938 229.333 730.938 198V168C730.938 135 739.604 106 756.938 81C774.604 55.6666 798.938 35.8333 829.938 21.5C860.938 7.16665 896.438 -1.0252e-05 936.438 -1.0252e-05C976.104 -1.0252e-05 1011.1 6.99999 1041.44 21C1072.1 34.6667 1095.94 53.6667 1112.94 78C1130.27 102.333 1138.94 130.5 1138.94 162.5V166C1138.94 187 1133.6 205.5 1122.94 221.5C1112.6 237.167 1097.1 249 1076.44 257V266.5L1153.94 255.5V358H936.438ZM936.438 251C953.104 251 966.938 245.833 977.937 235.5C989.271 225.167 994.938 212.667 994.938 198V168C994.938 153.333 989.271 140.833 977.937 130.5C966.938 120.167 953.104 115 936.438 115C920.104 115 906.271 120.167 894.938 130.5C883.604 140.833 877.938 153.333 877.938 168V198C877.938 212.667 883.604 225.167 894.938 235.5C906.271 245.833 920.104 251 936.438 251Z" fill="#94B95F" fill-opacity="0.15"/>
</svg>
