<svg width="1266" height="220" viewBox="0 0 1266 220" fill="none" xmlns="http://www.w3.org/2000/svg">
<path d="M100.8 219.6C88.6002 219.6 76.5002 217.5 64.5002 213.3C52.7002 208.9 41.9002 202.5 32.1002 194.1C22.3002 185.7 14.5002 175.2 8.7002 162.6C2.9002 150 0.000195786 135.4 0.000195786 118.8V100.5C0.000195786 79.7 5.2002 61.8 15.6002 46.8C26.2002 31.8 40.8002 20.3 59.4002 12.3C78.0002 4.10004 99.3002 4.26769e-05 123.3 4.26769e-05C142.1 4.26769e-05 159.7 2.70004 176.1 8.10005C192.5 13.5 206.5 21.8 218.1 33C229.7 44 237.6 58.2 241.8 75.6L157.2 91.5C155.2 82.9 150.8 76.7 144 72.9C137.2 69.1 130.1 67.2 122.7 67.2C113.3 67.2 105.2 70.1 98.4002 75.9C91.6002 81.5 88.2002 89.7 88.2002 100.5V118.8C88.2002 130.2 91.9002 139.4 99.3002 146.4C106.9 153.2 116.5 156.6 128.1 156.6C136.7 156.6 144.4 154.7 151.2 150.9C158 147.1 162.5 141.8 164.7 135H120.6V100.8H243V214.8H172.2L174.9 180H169.5C166.7 188.8 161.7 196.2 154.5 202.2C147.5 208 139.3 212.3 129.9 215.1C120.5 218.1 110.8 219.6 100.8 219.6ZM414.699 176.7C414.699 162.7 407.699 155.7 393.699 155.7H358.899V214.8H273.099V4.80003H434.199C456.199 4.80003 472.699 9.80004 483.699 19.8C494.899 29.6 500.499 42.7 500.499 59.1C500.499 67.3 498.799 75.1 495.399 82.5C491.999 89.7 486.299 95.9 478.299 101.1C470.499 106.3 459.799 109.9 446.199 111.9V117.9C459.799 119.9 470.499 122.8 478.299 126.6C486.299 130.4 491.999 135.6 495.399 142.2C498.799 148.8 500.499 157.4 500.499 168V214.8H414.699V176.7ZM358.899 95.1H402.999C406.799 95.1 409.799 93.9 411.999 91.5C414.199 88.9 415.299 85.7 415.299 81.9C415.299 77.9 414.199 74.7 411.999 72.3C409.799 69.9 406.799 68.7 402.999 68.7H358.899V95.1ZM519.263 118.8V100.8C519.263 81 524.463 63.6 534.863 48.6C545.463 33.4 560.063 21.5 578.663 12.9C597.263 4.30004 618.563 4.26769e-05 642.563 4.26769e-05C666.763 4.26769e-05 688.063 4.30004 706.463 12.9C725.063 21.5 739.563 33.4 749.963 48.6C760.563 63.6 765.863 81 765.863 100.8V118.8C765.863 138.4 760.563 155.8 749.963 171C739.563 186.2 725.063 198.1 706.463 206.7C688.063 215.3 666.763 219.6 642.563 219.6C618.563 219.6 597.263 215.3 578.663 206.7C560.063 198.1 545.463 186.2 534.863 171C524.463 155.8 519.263 138.4 519.263 118.8ZM642.563 69C632.763 69 624.463 72.1 617.663 78.3C610.863 84.5 607.463 92 607.463 100.8V118.8C607.463 127.6 610.863 135.1 617.663 141.3C624.463 147.5 632.763 150.6 642.563 150.6C652.563 150.6 660.863 147.5 667.463 141.3C674.263 135.1 677.663 127.6 677.663 118.8V100.8C677.663 92 674.263 84.5 667.463 78.3C660.863 72.1 652.563 69 642.563 69ZM903.054 219.6C867.254 219.6 839.654 211.8 820.254 196.2C800.854 180.4 791.154 158 791.154 129V4.80003H875.154V122.7C875.154 144.5 884.454 155.4 903.054 155.4C921.654 155.4 930.954 144.5 930.954 122.7V4.80003H1014.95V129C1014.95 158 1005.25 180.4 985.854 196.2C966.454 211.8 938.854 219.6 903.054 219.6ZM1046.29 214.8V4.80003H1193.59C1208.39 4.80003 1221.19 7.90004 1231.99 14.1C1242.79 20.3 1251.09 29.1 1256.89 40.5C1262.89 51.9 1265.89 65.5 1265.89 81.3C1265.89 97.9 1262.89 112.3 1256.89 124.5C1251.09 136.5 1242.79 145.8 1231.99 152.4C1221.19 159 1208.39 162.3 1193.59 162.3H1132.09V214.8H1046.29ZM1165.39 68.7H1132.09V99.3H1165.39C1169.99 99.3 1173.69 97.9 1176.49 95.1C1179.29 92.3 1180.69 88.6 1180.69 84C1180.69 79.4 1179.29 75.7 1176.49 72.9C1173.69 70.1 1169.99 68.7 1165.39 68.7Z" fill="#94B95F" fill-opacity="0.15"/>
</svg>
