<svg width="51" height="51" viewBox="0 0 51 51" fill="none" xmlns="http://www.w3.org/2000/svg">
<path d="M25.5 34C30.1943 34 34 30.1943 34 25.5C34 20.8056 30.1943 17 25.5 17C20.8056 17 17 20.8056 17 25.5C17 30.1943 20.8056 34 25.5 34Z" stroke="white" stroke-width="3" stroke-linecap="round" stroke-linejoin="round"/>
<path d="M6.375 34V17C6.375 11.132 11.132 6.375 17 6.375H34C39.868 6.375 44.625 11.132 44.625 17V34C44.625 39.868 39.868 44.625 34 44.625H17C11.132 44.625 6.375 39.868 6.375 34Z" stroke="white" stroke-width="3"/>
<path d="M37.1875 13.833L37.2081 13.8101" stroke="white" stroke-width="3" stroke-linecap="round" stroke-linejoin="round"/>
</svg>
