<svg width="1217" height="183" viewBox="0 0 1217 183" fill="none" xmlns="http://www.w3.org/2000/svg">
<path d="M7.07805e-07 179V3.99999H122.75C135.083 3.99999 145.75 6.58332 154.75 11.75C163.75 16.9167 170.667 24.25 175.5 33.75C180.5 43.25 183 54.5833 183 67.75C183 81.5833 180.5 93.5833 175.5 103.75C170.667 113.75 163.75 121.5 154.75 127C145.75 132.5 135.083 135.25 122.75 135.25H71.5V179H7.07805e-07ZM99.25 57.25H71.5V82.75H99.25C103.083 82.75 106.167 81.5833 108.5 79.25C110.833 76.9167 112 73.8333 112 70C112 66.1667 110.833 63.0833 108.5 60.75C106.167 58.4167 103.083 57.25 99.25 57.25ZM172.984 179L237.984 3.99999H327.984L392.984 179H321.484L313.234 151.75H253.234L244.484 179H172.984ZM272.234 91.5L266.734 108.75H300.484L295.234 91.5L286.234 53.75H281.734L272.234 91.5ZM501.945 183C484.779 183 468.945 181.083 454.445 177.25C439.945 173.25 427.529 167.583 417.195 160.25C407.029 152.917 399.612 144.25 394.945 134.25L458.195 117.75C462.695 124.583 468.945 129.667 476.945 133C485.112 136.167 494.112 137.75 503.945 137.75C519.445 137.75 527.195 134.5 527.195 128C527.195 123.5 523.612 120.583 516.445 119.25C509.445 117.917 500.779 117 490.445 116.5C482.779 116.167 474.695 115.583 466.195 114.75C457.862 113.917 449.695 112.5 441.695 110.5C433.695 108.333 426.445 105.333 419.945 101.5C413.445 97.5 408.195 92.3333 404.195 86C400.362 79.5 398.445 71.4167 398.445 61.75C398.445 48.5833 402.195 37.4167 409.695 28.25C417.195 19.0833 427.779 12.0833 441.445 7.24999C455.279 2.41666 471.612 -5.126e-06 490.445 -5.126e-06C506.945 -5.126e-06 522.195 1.74999 536.195 5.24999C550.362 8.74999 562.529 13.8333 572.695 20.5C583.029 27 590.695 34.75 595.695 43.75L530.945 60.75C528.779 57.0833 525.445 54.1667 520.945 52C516.445 49.6667 511.529 48 506.195 47C500.862 45.8333 495.695 45.25 490.695 45.25C484.195 45.25 479.029 46.0833 475.195 47.75C471.362 49.25 469.445 51.5833 469.445 54.75C469.445 58.9167 472.779 61.5833 479.445 62.75C486.112 63.9167 494.362 64.6667 504.195 65C511.862 65.3333 519.945 65.8333 528.445 66.5C536.945 67 545.279 68.1667 553.445 70C561.779 71.6667 569.279 74.4167 575.945 78.25C582.779 81.9167 588.195 87.0833 592.195 93.75C596.195 100.25 598.195 108.667 598.195 119C598.195 132 594.279 143.333 586.445 153C578.612 162.5 567.529 169.917 553.195 175.25C538.862 180.417 521.779 183 501.945 183ZM717.209 183C700.042 183 684.209 181.083 669.709 177.25C655.209 173.25 642.792 167.583 632.459 160.25C622.292 152.917 614.876 144.25 610.209 134.25L673.459 117.75C677.959 124.583 684.209 129.667 692.209 133C700.376 136.167 709.376 137.75 719.209 137.75C734.709 137.75 742.459 134.5 742.459 128C742.459 123.5 738.876 120.583 731.709 119.25C724.709 117.917 716.042 117 705.709 116.5C698.042 116.167 689.959 115.583 681.459 114.75C673.126 113.917 664.959 112.5 656.959 110.5C648.959 108.333 641.709 105.333 635.209 101.5C628.709 97.5 623.459 92.3333 619.459 86C615.626 79.5 613.709 71.4167 613.709 61.75C613.709 48.5833 617.459 37.4167 624.959 28.25C632.459 19.0833 643.042 12.0833 656.709 7.24999C670.542 2.41666 686.876 -5.126e-06 705.709 -5.126e-06C722.209 -5.126e-06 737.459 1.74999 751.459 5.24999C765.626 8.74999 777.792 13.8333 787.959 20.5C798.292 27 805.959 34.75 810.959 43.75L746.209 60.75C744.042 57.0833 740.709 54.1667 736.209 52C731.709 49.6667 726.792 48 721.459 47C716.126 45.8333 710.959 45.25 705.959 45.25C699.459 45.25 694.292 46.0833 690.459 47.75C686.626 49.25 684.709 51.5833 684.709 54.75C684.709 58.9167 688.042 61.5833 694.709 62.75C701.376 63.9167 709.626 64.6667 719.459 65C727.126 65.3333 735.209 65.8333 743.709 66.5C752.209 67 760.542 68.1667 768.709 70C777.042 71.6667 784.542 74.4167 791.209 78.25C798.042 81.9167 803.459 87.0833 807.459 93.75C811.459 100.25 813.459 108.667 813.459 119C813.459 132 809.542 143.333 801.709 153C793.876 162.5 782.792 169.917 768.459 175.25C754.126 180.417 737.042 183 717.209 183ZM833.223 179V3.99999H997.723V54.5H903.223V70H970.723V113H903.223V128.5H997.723V179H833.223ZM1120.15 183C1102.98 183 1087.15 181.083 1072.65 177.25C1058.15 173.25 1045.73 167.583 1035.4 160.25C1025.23 152.917 1017.82 144.25 1013.15 134.25L1076.4 117.75C1080.9 124.583 1087.15 129.667 1095.15 133C1103.32 136.167 1112.32 137.75 1122.15 137.75C1137.65 137.75 1145.4 134.5 1145.4 128C1145.4 123.5 1141.82 120.583 1134.65 119.25C1127.65 117.917 1118.98 117 1108.65 116.5C1100.98 116.167 1092.9 115.583 1084.4 114.75C1076.07 113.917 1067.9 112.5 1059.9 110.5C1051.9 108.333 1044.65 105.333 1038.15 101.5C1031.65 97.5 1026.4 92.3333 1022.4 86C1018.57 79.5 1016.65 71.4167 1016.65 61.75C1016.65 48.5833 1020.4 37.4167 1027.9 28.25C1035.4 19.0833 1045.98 12.0833 1059.65 7.24999C1073.48 2.41666 1089.82 -5.126e-06 1108.65 -5.126e-06C1125.15 -5.126e-06 1140.4 1.74999 1154.4 5.24999C1168.57 8.74999 1180.73 13.8333 1190.9 20.5C1201.23 27 1208.9 34.75 1213.9 43.75L1149.15 60.75C1146.98 57.0833 1143.65 54.1667 1139.15 52C1134.65 49.6667 1129.73 48 1124.4 47C1119.07 45.8333 1113.9 45.25 1108.9 45.25C1102.4 45.25 1097.23 46.0833 1093.4 47.75C1089.57 49.25 1087.65 51.5833 1087.65 54.75C1087.65 58.9167 1090.98 61.5833 1097.65 62.75C1104.32 63.9167 1112.57 64.6667 1122.4 65C1130.07 65.3333 1138.15 65.8333 1146.65 66.5C1155.15 67 1163.48 68.1667 1171.65 70C1179.98 71.6667 1187.48 74.4167 1194.15 78.25C1200.98 81.9167 1206.4 87.0833 1210.4 93.75C1214.4 100.25 1216.4 108.667 1216.4 119C1216.4 132 1212.48 143.333 1204.65 153C1196.82 162.5 1185.73 169.917 1171.4 175.25C1157.07 180.417 1139.98 183 1120.15 183Z" fill="#94B95F" fill-opacity="0.15"/>
</svg>
