<svg width="1259" height="147" viewBox="0 0 1259 147" fill="none" xmlns="http://www.w3.org/2000/svg">
<path d="M44.4 143.2L-4.88386e-05 3.19994H58L80.4 82.6L103.2 3.19994H155.2L177.6 85.9999L201.2 3.19994H258.4L214 143.2H147.8L129.2 74.3999L109.4 143.2H44.4ZM271.255 143.2V3.19994H402.855V43.5999H327.255V55.9999H381.255V90.4H327.255V102.8H402.855V143.2H271.255ZM422.177 143.2V3.19994H478.177V96.7999H539.777V143.2H422.177ZM630.4 146.4C614.4 146.4 600.2 143.533 587.8 137.8C575.4 132.067 565.667 124.133 558.6 114C551.667 103.867 548.2 92.2666 548.2 79.1999V67.1999C548.2 53.9999 551.667 42.3999 558.6 32.3999C565.667 22.2666 575.4 14.3333 587.8 8.59994C600.2 2.86661 614.4 -5.29289e-05 630.4 -5.29289e-05C644.533 -5.29289e-05 657.333 2.26661 668.8 6.79994C680.267 11.3333 689.667 17.6666 697 25.7999C704.467 33.7999 708.933 43.1999 710.4 53.9999L653 65.5999C652.467 60.1333 650.067 55.5333 645.8 51.7999C641.667 47.9333 636.533 45.9999 630.4 45.9999C623.867 45.9999 618.333 48.0666 613.8 52.1999C609.267 56.3333 607 61.3333 607 67.1999V79.1999C607 85.0666 609.267 90.0666 613.8 94.2C618.333 98.3333 623.867 100.4 630.4 100.4C636.533 100.4 641.667 98.5333 645.8 94.7999C650.067 90.9333 652.467 86.2666 653 80.7999L710.4 92.3999C708.933 103.067 704.467 112.467 697 120.6C689.667 128.733 680.267 135.067 668.8 139.6C657.333 144.133 644.533 146.4 630.4 146.4ZM721.583 79.1999V67.1999C721.583 53.9999 725.049 42.3999 731.983 32.3999C739.049 22.2666 748.783 14.3333 761.183 8.59994C773.583 2.86661 787.783 -5.29289e-05 803.783 -5.29289e-05C819.916 -5.29289e-05 834.116 2.86661 846.383 8.59994C858.783 14.3333 868.449 22.2666 875.383 32.3999C882.449 42.3999 885.983 53.9999 885.983 67.1999V79.1999C885.983 92.2666 882.449 103.867 875.383 114C868.449 124.133 858.783 132.067 846.383 137.8C834.116 143.533 819.916 146.4 803.783 146.4C787.783 146.4 773.583 143.533 761.183 137.8C748.783 132.067 739.049 124.133 731.983 114C725.049 103.867 721.583 92.2666 721.583 79.1999ZM803.783 45.9999C797.249 45.9999 791.716 48.0666 787.183 52.1999C782.649 56.3333 780.383 61.3333 780.383 67.1999V79.1999C780.383 85.0666 782.649 90.0666 787.183 94.2C791.716 98.3333 797.249 100.4 803.783 100.4C810.449 100.4 815.983 98.3333 820.383 94.2C824.916 90.0666 827.183 85.0666 827.183 79.1999V67.1999C827.183 61.3333 824.916 56.3333 820.383 52.1999C815.983 48.0666 810.449 45.9999 803.783 45.9999ZM904.044 143.2V3.19994H981.244L1004.64 68.7999L1028.04 3.19994H1105.24V143.2H1051.24V70.1999L1025.24 143.2H984.044L958.044 70.1999V143.2H904.044ZM1127.23 143.2V3.19994H1258.83V43.5999H1183.23V55.9999H1237.23V90.4H1183.23V102.8H1258.83V143.2H1127.23Z" fill="#94B95F" fill-opacity="0.15"/>
</svg>
